0
SECTION
2
HEADER
0
ENDSEC
0
SECTION
2
TABLES
0
TABLE
2
LAYER
70
5
0
LAYER
2
OPENINGS
70
0
62
7
6
CONTINUOUS
0
LAYER
2
OPENINGS_ALERT
70
0
62
1
6
CONTINUOUS
0
LAYER
2
OPENINGS_DISTANCE_WARN
70
0
62
1
6
CONTINUOUS
0
LAYER
2
OPENINGS_DISTANCE_TEXT
70
0
62
1
6
CONTINUOUS
0
LAYER
2
EDGE_CUTS
70
0
62
7
6
CONTINUOUS
0
ENDTAB
0
ENDSEC
0
SECTION
2
ENTITIES
0
LWPOLYLINE
8
OPENINGS
90
4
70
1
10
85.34400000000001
20
-135.00799999999998
42
0.0
10
82.544
20
-135.00799999999998
42
0.0
10
82.544
20
-133.808
42
0.0
10
85.34400000000001
20
-133.808
42
0.0
0
LWPOLYLINE
8
OPENINGS
90
4
70
1
10
85.34400000000001
20
-90.008
42
0.0
10
82.544
20
-90.008
42
0.0
10
82.544
20
-88.808
42
0.0
10
85.34400000000001
20
-88.808
42
0.0
0
LWPOLYLINE
8
OPENINGS
90
4
70
1
10
61.344
20
-135.00799999999998
42
0.0
10
58.544000000000004
20
-135.00799999999998
42
0.0
10
58.544000000000004
20
-133.808
42
0.0
10
61.344
20
-133.808
42
0.0
0
LWPOLYLINE
8
OPENINGS
90
4
70
1
10
61.344
20
-90.008
42
0.0
10
58.544000000000004
20
-90.008
42
0.0
10
58.544000000000004
20
-88.808
42
0.0
10
61.344
20
-88.808
42
0.0
0
LWPOLYLINE
8
OPENINGS
90
4
70
1
10
92.44999999999999
20
-90.078
42
0.0
10
95.25
20
-90.078
42
0.0
10
95.25
20
-91.27799999999999
42
0.0
10
92.44999999999999
20
-91.27799999999999
42
0.0
0
LWPOLYLINE
8
OPENINGS
90
4
70
1
10
68.44999999999999
20
-90.078
42
0.0
10
71.25
20
-90.078
42
0.0
10
71.25
20
-91.27799999999999
42
0.0
10
68.44999999999999
20
-91.27799999999999
42
0.0
0
LWPOLYLINE
8
OPENINGS
90
4
70
1
10
92.44999999999999
20
-135.078
42
0.0
10
95.25
20
-135.078
42
0.0
10
95.25
20
-136.278
42
0.0
10
92.44999999999999
20
-136.278
42
0.0
0
LWPOLYLINE
8
OPENINGS
90
4
70
1
10
68.44999999999999
20
-135.078
42
0.0
10
71.25
20
-135.078
42
0.0
10
71.25
20
-136.278
42
0.0
10
68.44999999999999
20
-136.278
42
0.0
0
LWPOLYLINE
8
OPENINGS
90
4
70
1
10
66.706201
20
-132.538
42
0.0
10
69.506201
20
-132.538
42
0.0
10
69.506201
20
-133.738
42
0.0
10
66.706201
20
-133.738
42
0.0
0
LWPOLYLINE
8
OPENINGS
90
4
70
1
10
90.706201
20
-87.53800000000001
42
0.0
10
93.506201
20
-87.53800000000001
42
0.0
10
93.506201
20
-88.738
42
0.0
10
90.706201
20
-88.738
42
0.0
0
LWPOLYLINE
8
OPENINGS
90
4
70
1
10
90.706201
20
-132.538
42
0.0
10
93.506201
20
-132.538
42
0.0
10
93.506201
20
-133.738
42
0.0
10
90.706201
20
-133.738
42
0.0
0
LWPOLYLINE
8
OPENINGS
90
4
70
1
10
66.706201
20
-87.53800000000001
42
0.0
10
69.506201
20
-87.53800000000001
42
0.0
10
69.506201
20
-88.738
42
0.0
10
66.706201
20
-88.738
42
0.0
0
LWPOLYLINE
8
OPENINGS
90
4
70
1
10
61.199999999999996
20
-113.45
42
0.0
10
59.6
20
-113.45
42
0.0
10
59.6
20
-110.95
42
0.0
10
61.199999999999996
20
-110.95
42
0.0
0
LWPOLYLINE
8
OPENINGS
90
4
70
1
10
85.2
20
-68.45
42
0.0
10
83.60000000000001
20
-68.45
42
0.0
10
83.60000000000001
20
-65.95
42
0.0
10
85.2
20
-65.95
42
0.0
0
LWPOLYLINE
8
OPENINGS
90
4
70
1
10
85.2
20
-113.45
42
0.0
10
83.60000000000001
20
-113.45
42
0.0
10
83.60000000000001
20
-110.95
42
0.0
10
85.2
20
-110.95
42
0.0
0
LWPOLYLINE
8
OPENINGS
90
4
70
1
10
61.199999999999996
20
-68.45
42
0.0
10
59.6
20
-68.45
42
0.0
10
59.6
20
-65.95
42
0.0
10
61.199999999999996
20
-65.95
42
0.0
0
LWPOLYLINE
8
OPENINGS
90
4
70
1
10
87.2
20
-113.45
42
0.0
10
85.60000000000001
20
-113.45
42
0.0
10
85.60000000000001
20
-110.95
42
0.0
10
87.2
20
-110.95
42
0.0
0
LWPOLYLINE
8
OPENINGS
90
4
70
1
10
87.2
20
-68.45
42
0.0
10
85.60000000000001
20
-68.45
42
0.0
10
85.60000000000001
20
-65.95
42
0.0
10
87.2
20
-65.95
42
0.0
0
LWPOLYLINE
8
OPENINGS
90
4
70
1
10
63.199999999999996
20
-68.45
42
0.0
10
61.6
20
-68.45
42
0.0
10
61.6
20
-65.95
42
0.0
10
63.199999999999996
20
-65.95
42
0.0
0
LWPOLYLINE
8
OPENINGS
90
4
70
1
10
63.199999999999996
20
-113.45
42
0.0
10
61.6
20
-113.45
42
0.0
10
61.6
20
-110.95
42
0.0
10
63.199999999999996
20
-110.95
42
0.0
0
LWPOLYLINE
8
OPENINGS
90
4
70
1
10
76.93650000000001
20
-77.562
42
0.0
10
74.1365
20
-77.562
42
0.0
10
74.1365
20
-76.36200000000001
42
0.0
10
76.93650000000001
20
-76.36200000000001
42
0.0
0
LWPOLYLINE
8
OPENINGS
90
4
70
1
10
52.936499999999995
20
-77.562
42
0.0
10
50.1365
20
-77.562
42
0.0
10
50.1365
20
-76.36200000000001
42
0.0
10
52.936499999999995
20
-76.36200000000001
42
0.0
0
LWPOLYLINE
8
OPENINGS
90
4
70
1
10
76.93650000000001
20
-122.562
42
0.0
10
74.1365
20
-122.562
42
0.0
10
74.1365
20
-121.36200000000001
42
0.0
10
76.93650000000001
20
-121.36200000000001
42
0.0
0
LWPOLYLINE
8
OPENINGS
90
4
70
1
10
52.936499999999995
20
-122.562
42
0.0
10
50.1365
20
-122.562
42
0.0
10
50.1365
20
-121.36200000000001
42
0.0
10
52.936499999999995
20
-121.36200000000001
42
0.0
0
LWPOLYLINE
8
OPENINGS
90
4
70
1
10
80.25
20
-142.212
42
0.0
10
89.75
20
-142.212
42
0.0
10
89.75
20
-149.712
42
0.0
10
80.25
20
-149.712
42
0.0
0
LWPOLYLINE
8
OPENINGS
90
4
70
1
10
56.25
20
-97.212
42
0.0
10
65.75
20
-97.212
42
0.0
10
65.75
20
-104.712
42
0.0
10
56.25
20
-104.712
42
0.0
0
LWPOLYLINE
8
OPENINGS
90
4
70
1
10
56.25
20
-142.212
42
0.0
10
65.75
20
-142.212
42
0.0
10
65.75
20
-149.712
42
0.0
10
56.25
20
-149.712
42
0.0
0
LWPOLYLINE
8
OPENINGS
90
4
70
1
10
80.25
20
-97.212
42
0.0
10
89.75
20
-97.212
42
0.0
10
89.75
20
-104.712
42
0.0
10
80.25
20
-104.712
42
0.0
0
LWPOLYLINE
8
OPENINGS
90
4
70
1
10
82.30999999999999
20
-114.74040000000001
42
0.0
10
87.61
20
-114.74040000000001
42
0.0
10
87.61
20
-118.64040000000001
42
0.0
10
82.30999999999999
20
-118.64040000000001
42
0.0
0
LWPOLYLINE
8
OPENINGS
90
4
70
1
10
82.30999999999999
20
-69.74040000000001
42
0.0
10
87.61
20
-69.74040000000001
42
0.0
10
87.61
20
-73.64040000000001
42
0.0
10
82.30999999999999
20
-73.64040000000001
42
0.0
0
LWPOLYLINE
8
OPENINGS
90
4
70
1
10
58.31
20
-69.74040000000001
42
0.0
10
63.61
20
-69.74040000000001
42
0.0
10
63.61
20
-73.64040000000001
42
0.0
10
58.31
20
-73.64040000000001
42
0.0
0
LWPOLYLINE
8
OPENINGS
90
4
70
1
10
58.31
20
-114.74040000000001
42
0.0
10
63.61
20
-114.74040000000001
42
0.0
10
63.61
20
-118.64040000000001
42
0.0
10
58.31
20
-118.64040000000001
42
0.0
0
LWPOLYLINE
8
OPENINGS
90
4
70
1
10
63.61
20
-80.532
42
0.0
10
58.31
20
-80.532
42
0.0
10
58.31
20
-76.63199999999999
42
0.0
10
63.61
20
-76.63199999999999
42
0.0
0
LWPOLYLINE
8
OPENINGS
90
4
70
1
10
63.61
20
-125.532
42
0.0
10
58.31
20
-125.532
42
0.0
10
58.31
20
-121.63199999999999
42
0.0
10
63.61
20
-121.63199999999999
42
0.0
0
LWPOLYLINE
8
OPENINGS
90
4
70
1
10
87.61
20
-80.532
42
0.0
10
82.30999999999999
20
-80.532
42
0.0
10
82.30999999999999
20
-76.63199999999999
42
0.0
10
87.61
20
-76.63199999999999
42
0.0
0
LWPOLYLINE
8
OPENINGS
90
4
70
1
10
87.61
20
-125.532
42
0.0
10
82.30999999999999
20
-125.532
42
0.0
10
82.30999999999999
20
-121.63199999999999
42
0.0
10
87.61
20
-121.63199999999999
42
0.0
0
LWPOLYLINE
8
OPENINGS
90
4
70
1
10
81.24600000000001
20
-140.344599
42
0.0
10
75.946
20
-140.344599
42
0.0
10
75.946
20
-136.444599
42
0.0
10
81.24600000000001
20
-136.444599
42
0.0
0
LWPOLYLINE
8
OPENINGS
90
4
70
1
10
57.245999999999995
20
-140.344599
42
0.0
10
51.946
20
-140.344599
42
0.0
10
51.946
20
-136.444599
42
0.0
10
57.245999999999995
20
-136.444599
42
0.0
0
LWPOLYLINE
8
OPENINGS
90
4
70
1
10
57.245999999999995
20
-95.344599
42
0.0
10
51.946
20
-95.344599
42
0.0
10
51.946
20
-91.444599
42
0.0
10
57.245999999999995
20
-91.444599
42
0.0
0
LWPOLYLINE
8
OPENINGS
90
4
70
1
10
81.24600000000001
20
-95.344599
42
0.0
10
75.946
20
-95.344599
42
0.0
10
75.946
20
-91.444599
42
0.0
10
81.24600000000001
20
-91.444599
42
0.0
0
LWPOLYLINE
8
OPENINGS
90
4
70
1
10
80.26400000000001
20
-123.832
42
0.0
10
77.464
20
-123.832
42
0.0
10
77.464
20
-122.632
42
0.0
10
80.26400000000001
20
-122.632
42
0.0
0
LWPOLYLINE
8
OPENINGS
90
4
70
1
10
56.263999999999996
20
-78.832
42
0.0
10
53.464
20
-78.832
42
0.0
10
53.464
20
-77.632
42
0.0
10
56.263999999999996
20
-77.632
42
0.0
0
LWPOLYLINE
8
OPENINGS
90
4
70
1
10
80.26400000000001
20
-78.832
42
0.0
10
77.464
20
-78.832
42
0.0
10
77.464
20
-77.632
42
0.0
10
80.26400000000001
20
-77.632
42
0.0
0
LWPOLYLINE
8
OPENINGS
90
4
70
1
10
56.263999999999996
20
-123.832
42
0.0
10
53.464
20
-123.832
42
0.0
10
53.464
20
-122.632
42
0.0
10
56.263999999999996
20
-122.632
42
0.0
0
LWPOLYLINE
8
OPENINGS
90
4
70
1
10
68.44999999999999
20
-137.618
42
0.0
10
71.25
20
-137.618
42
0.0
10
71.25
20
-138.81799999999998
42
0.0
10
68.44999999999999
20
-138.81799999999998
42
0.0
0
LWPOLYLINE
8
OPENINGS
90
4
70
1
10
92.44999999999999
20
-137.618
42
0.0
10
95.25
20
-137.618
42
0.0
10
95.25
20
-138.81799999999998
42
0.0
10
92.44999999999999
20
-138.81799999999998
42
0.0
0
LWPOLYLINE
8
OPENINGS
90
4
70
1
10
68.44999999999999
20
-92.61800000000001
42
0.0
10
71.25
20
-92.61800000000001
42
0.0
10
71.25
20
-93.818
42
0.0
10
68.44999999999999
20
-93.818
42
0.0
0
LWPOLYLINE
8
OPENINGS
90
4
70
1
10
92.44999999999999
20
-92.61800000000001
42
0.0
10
95.25
20
-92.61800000000001
42
0.0
10
95.25
20
-93.818
42
0.0
10
92.44999999999999
20
-93.818
42
0.0
0
LWPOLYLINE
8
OPENINGS
90
4
70
1
10
58.836
20
-139.11
42
0.0
10
58.836
20
-136.31
42
0.0
10
60.036
20
-136.31
42
0.0
10
60.036
20
-139.11
42
0.0
0
LWPOLYLINE
8
OPENINGS
90
4
70
1
10
58.836
20
-94.11
42
0.0
10
58.836
20
-91.30999999999999
42
0.0
10
60.036
20
-91.30999999999999
42
0.0
10
60.036
20
-94.11
42
0.0
0
LWPOLYLINE
8
OPENINGS
90
4
70
1
10
82.83600000000001
20
-94.11
42
0.0
10
82.83600000000001
20
-91.30999999999999
42
0.0
10
84.036
20
-91.30999999999999
42
0.0
10
84.036
20
-94.11
42
0.0
0
LWPOLYLINE
8
OPENINGS
90
4
70
1
10
82.83600000000001
20
-139.11
42
0.0
10
82.83600000000001
20
-136.31
42
0.0
10
84.036
20
-136.31
42
0.0
10
84.036
20
-139.11
42
0.0
0
LWPOLYLINE
8
OPENINGS
90
4
70
1
10
68.44999999999999
20
-95.158
42
0.0
10
71.25
20
-95.158
42
0.0
10
71.25
20
-96.35799999999999
42
0.0
10
68.44999999999999
20
-96.35799999999999
42
0.0
0
LWPOLYLINE
8
OPENINGS
90
4
70
1
10
92.44999999999999
20
-140.15800000000002
42
0.0
10
95.25
20
-140.15800000000002
42
0.0
10
95.25
20
-141.358
42
0.0
10
92.44999999999999
20
-141.358
42
0.0
0
LWPOLYLINE
8
OPENINGS
90
4
70
1
10
68.44999999999999
20
-140.15800000000002
42
0.0
10
71.25
20
-140.15800000000002
42
0.0
10
71.25
20
-141.358
42
0.0
10
68.44999999999999
20
-141.358
42
0.0
0
LWPOLYLINE
8
OPENINGS
90
4
70
1
10
92.44999999999999
20
-95.158
42
0.0
10
95.25
20
-95.158
42
0.0
10
95.25
20
-96.35799999999999
42
0.0
10
92.44999999999999
20
-96.35799999999999
42
0.0
0
LWPOLYLINE
8
OPENINGS
90
4
70
1
10
55.184999999999995
20
-130.134
42
0.0
10
52.385
20
-130.134
42
0.0
10
52.385
20
-128.934
42
0.0
10
55.184999999999995
20
-128.934
42
0.0
0
LWPOLYLINE
8
OPENINGS
90
4
70
1
10
79.185
20
-85.134
42
0.0
10
76.38499999999999
20
-85.134
42
0.0
10
76.38499999999999
20
-83.93400000000001
42
0.0
10
79.185
20
-83.93400000000001
42
0.0
0
LWPOLYLINE
8
OPENINGS
90
4
70
1
10
55.184999999999995
20
-85.134
42
0.0
10
52.385
20
-85.134
42
0.0
10
52.385
20
-83.93400000000001
42
0.0
10
55.184999999999995
20
-83.93400000000001
42
0.0
0
LWPOLYLINE
8
OPENINGS
90
4
70
1
10
79.185
20
-130.134
42
0.0
10
76.38499999999999
20
-130.134
42
0.0
10
76.38499999999999
20
-128.934
42
0.0
10
79.185
20
-128.934
42
0.0
0
LWPOLYLINE
8
OPENINGS
90
4
70
1
10
71.25
20
-130.69
42
0.0
10
68.44999999999999
20
-130.69
42
0.0
10
68.44999999999999
20
-129.49
42
0.0
10
71.25
20
-129.49
42
0.0
0
LWPOLYLINE
8
OPENINGS
90
4
70
1
10
71.25
20
-85.69
42
0.0
10
68.44999999999999
20
-85.69
42
0.0
10
68.44999999999999
20
-84.49000000000001
42
0.0
10
71.25
20
-84.49000000000001
42
0.0
0
LWPOLYLINE
8
OPENINGS
90
4
70
1
10
95.25
20
-85.69
42
0.0
10
92.44999999999999
20
-85.69
42
0.0
10
92.44999999999999
20
-84.49000000000001
42
0.0
10
95.25
20
-84.49000000000001
42
0.0
0
LWPOLYLINE
8
OPENINGS
90
4
70
1
10
95.25
20
-130.69
42
0.0
10
92.44999999999999
20
-130.69
42
0.0
10
92.44999999999999
20
-129.49
42
0.0
10
95.25
20
-129.49
42
0.0
0
LWPOLYLINE
8
OPENINGS
90
4
70
1
10
56.599999999999994
20
-80.85
42
0.0
10
65.3
20
-80.85
42
0.0
10
65.3
20
-87.15
42
0.0
10
56.599999999999994
20
-87.15
42
0.0
0
LWPOLYLINE
8
OPENINGS
90
4
70
1
10
80.60000000000001
20
-80.85
42
0.0
10
89.3
20
-80.85
42
0.0
10
89.3
20
-87.15
42
0.0
10
80.60000000000001
20
-87.15
42
0.0
0
LWPOLYLINE
8
OPENINGS
90
4
70
1
10
56.599999999999994
20
-125.85
42
0.0
10
65.3
20
-125.85
42
0.0
10
65.3
20
-132.15
42
0.0
10
56.599999999999994
20
-132.15
42
0.0
0
LWPOLYLINE
8
OPENINGS
90
4
70
1
10
80.60000000000001
20
-125.85
42
0.0
10
89.3
20
-125.85
42
0.0
10
89.3
20
-132.15
42
0.0
10
80.60000000000001
20
-132.15
42
0.0
0
LWPOLYLINE
8
OPENINGS
90
4
70
1
10
75.9448
20
-124.391999
42
0.0
10
79.3448
20
-124.391999
42
0.0
10
79.3448
20
-127.791999
42
0.0
10
75.9448
20
-127.791999
42
0.0
0
LWPOLYLINE
8
OPENINGS
90
4
70
1
10
51.944799999999994
20
-124.391999
42
0.0
10
55.3448
20
-124.391999
42
0.0
10
55.3448
20
-127.791999
42
0.0
10
51.944799999999994
20
-127.791999
42
0.0
0
LWPOLYLINE
8
OPENINGS
90
4
70
1
10
51.944799999999994
20
-79.391999
42
0.0
10
55.3448
20
-79.391999
42
0.0
10
55.3448
20
-82.791999
42
0.0
10
51.944799999999994
20
-82.791999
42
0.0
0
LWPOLYLINE
8
OPENINGS
90
4
70
1
10
75.9448
20
-79.391999
42
0.0
10
79.3448
20
-79.391999
42
0.0
10
79.3448
20
-82.791999
42
0.0
10
75.9448
20
-82.791999
42
0.0
0
LWPOLYLINE
8
OPENINGS
90
4
70
1
10
85.708
20
-90.41
42
0.0
10
90.30799999999999
20
-90.41
42
0.0
10
90.30799999999999
20
-95.00999999999999
42
0.0
10
85.708
20
-95.00999999999999
42
0.0
0
LWPOLYLINE
8
OPENINGS
90
4
70
1
10
61.708
20
-135.41
42
0.0
10
66.30799999999999
20
-135.41
42
0.0
10
66.30799999999999
20
-140.01000000000002
42
0.0
10
61.708
20
-140.01000000000002
42
0.0
0
LWPOLYLINE
8
OPENINGS
90
4
70
1
10
61.708
20
-90.41
42
0.0
10
66.30799999999999
20
-90.41
42
0.0
10
66.30799999999999
20
-95.00999999999999
42
0.0
10
61.708
20
-95.00999999999999
42
0.0
0
LWPOLYLINE
8
OPENINGS
90
4
70
1
10
85.708
20
-135.41
42
0.0
10
90.30799999999999
20
-135.41
42
0.0
10
90.30799999999999
20
-140.01000000000002
42
0.0
10
85.708
20
-140.01000000000002
42
0.0
0
LWPOLYLINE
8
OPENINGS
90
4
70
1
10
52.147999999999996
20
-85.628
42
0.0
10
55.548
20
-85.628
42
0.0
10
55.548
20
-89.028
42
0.0
10
52.147999999999996
20
-89.028
42
0.0
0
LWPOLYLINE
8
OPENINGS
90
4
70
1
10
52.147999999999996
20
-130.62800000000001
42
0.0
10
55.548
20
-130.62800000000001
42
0.0
10
55.548
20
-134.028
42
0.0
10
52.147999999999996
20
-134.028
42
0.0
0
LWPOLYLINE
8
OPENINGS
90
4
70
1
10
76.148
20
-130.62800000000001
42
0.0
10
79.548
20
-130.62800000000001
42
0.0
10
79.548
20
-134.028
42
0.0
10
76.148
20
-134.028
42
0.0
0
LWPOLYLINE
8
OPENINGS
90
4
70
1
10
76.148
20
-85.628
42
0.0
10
79.548
20
-85.628
42
0.0
10
79.548
20
-89.028
42
0.0
10
76.148
20
-89.028
42
0.0
0
LWPOLYLINE
8
EDGE_CUTS
90
4
70
1
10
50.0
20
-60.2
42
0.0
10
72.0
20
-60.2
42
0.0
10
72.0
20
-74.2
42
0.0
10
50.0
20
-74.2
42
0.0
0
LWPOLYLINE
8
EDGE_CUTS
90
4
70
1
10
50.0
20
-121.2
42
0.0
10
72.0
20
-121.2
42
0.0
10
72.0
20
-148.2
42
0.0
10
50.0
20
-148.2
42
0.0
0
LWPOLYLINE
8
EDGE_CUTS
90
4
70
1
10
48.0
20
-58.2
42
0.0
10
98.0
20
-58.2
42
0.0
10
98.0
20
-150.2
42
0.0
10
48.0
20
-150.2
42
0.0
0
LWPOLYLINE
8
EDGE_CUTS
90
4
70
1
10
50.0
20
-76.2
42
0.0
10
72.0
20
-76.2
42
0.0
10
72.0
20
-103.2
42
0.0
10
50.0
20
-103.2
42
0.0
0
LWPOLYLINE
8
EDGE_CUTS
90
4
70
1
10
50.0
20
-105.2
42
0.0
10
72.0
20
-105.2
42
0.0
10
72.0
20
-119.2
42
0.0
10
50.0
20
-119.2
42
0.0
0
LWPOLYLINE
8
EDGE_CUTS
90
4
70
1
10
38.0
20
-48.2
42
0.0
10
108.0
20
-48.2
42
0.0
10
108.0
20
-160.2
42
0.0
10
38.0
20
-160.2
42
0.0
0
LWPOLYLINE
8
EDGE_CUTS
90
4
70
1
10
74.0
20
-121.2
42
0.0
10
96.0
20
-121.2
42
0.0
10
96.0
20
-148.2
42
0.0
10
74.0
20
-148.2
42
0.0
0
LWPOLYLINE
8
EDGE_CUTS
90
4
70
1
10
74.0
20
-105.2
42
0.0
10
96.0
20
-105.2
42
0.0
10
96.0
20
-119.2
42
0.0
10
74.0
20
-119.2
42
0.0
0
LWPOLYLINE
8
EDGE_CUTS
90
4
70
1
10
74.0
20
-76.2
42
0.0
10
96.0
20
-76.2
42
0.0
10
96.0
20
-103.2
42
0.0
10
74.0
20
-103.2
42
0.0
0
LWPOLYLINE
8
EDGE_CUTS
90
4
70
1
10
74.0
20
-60.2
42
0.0
10
96.0
20
-60.2
42
0.0
10
96.0
20
-74.2
42
0.0
10
74.0
20
-74.2
42
0.0
0
ENDSEC
0
EOF
